<svg width="100%" height="100%" viewBox="0 0 20 20" fill="none" xmlns="http://www.w3.org/2000/svg">
	<path fill='currentColor' d="M19.4374 8.59052C18.88 8.2341 18.244 8.02636 17.5877 7.98633C17.4753 7.97694 17.3624 7.97694 17.25 7.98633C17.0384 7.26688 16.5947 6.64186 15.9914 6.21301C15.9163 6.16155 15.8258 6.13884 15.736 6.14889C15.6461 6.15894 15.5626 6.20109 15.5002 6.26793C15.2338 6.6318 15.0467 7.04972 14.9514 7.49362C14.8561 7.93753 14.8548 8.39714 14.9476 8.84161C14.9544 8.8994 14.949 8.95801 14.9318 9.0135C14.9145 9.06899 14.8859 9.12007 14.8478 9.16332C14.815 9.2008 14.7748 9.23069 14.7298 9.25099C14.6848 9.27129 14.636 9.28152 14.5869 9.28101H14.2415V7.35076C14.2415 7.24671 14.2011 7.14692 14.1291 7.07334C14.0571 6.99976 13.9595 6.95843 13.8578 6.95843H11.939V2.64282C11.939 2.53876 11.8986 2.43897 11.8266 2.3654C11.7547 2.29182 11.6571 2.25049 11.5553 2.25049H9.25285C9.15108 2.25049 9.05347 2.29182 8.98151 2.3654C8.90954 2.43897 8.86911 2.53876 8.86911 2.64282V4.60446H4.64795C4.54618 4.60446 4.44857 4.64579 4.37661 4.71937C4.30464 4.79295 4.26421 4.89274 4.26421 4.99679V6.95843H2.3455C2.24373 6.95843 2.14612 6.99976 2.07416 7.07334C2.00219 7.14692 1.96176 7.24671 1.96176 7.35076V9.3124H1.57802C1.47625 9.3124 1.37864 9.35373 1.30667 9.42731C1.23471 9.50089 1.19428 9.60068 1.19428 9.70473C1.19428 15.723 5.48451 16.3743 7.33415 16.3743C9.25503 16.3801 11.1437 15.87 12.8112 14.8951C14.4787 13.9201 15.8664 12.5145 16.8356 10.8189C17.3809 10.7454 17.905 10.5559 18.3743 10.2627C18.8436 9.9694 19.2475 9.57887 19.5602 9.11624C19.6095 9.02922 19.6243 8.92614 19.6014 8.82831C19.5786 8.73047 19.5198 8.64535 19.4374 8.59052ZM13.474 9.3124H11.939V7.74309H13.474V9.3124ZM5.0317 9.3124V7.74309H6.56666V9.3124H5.0317ZM7.33415 9.3124V7.74309H8.86911V9.3124H7.33415ZM11.1716 5.38912V6.95843H9.63659V5.38912H11.1716ZM9.63659 9.3124V7.74309H11.1716V9.3124H9.63659ZM9.63659 3.03515H11.1716V4.60446H9.63659V3.03515ZM8.86911 6.95843H7.33415V5.38912H8.86911V6.95843ZM5.0317 5.38912H6.56666V6.95843H5.0317V5.38912ZM2.72925 7.74309H4.26421V9.3124H2.72925V7.74309ZM5.0317 13.2357C4.8799 13.2357 4.73152 13.1897 4.6053 13.1034C4.47909 13.0172 4.38072 12.8947 4.32263 12.7513C4.26454 12.6079 4.24935 12.4502 4.27896 12.2979C4.30857 12.1457 4.38167 12.0059 4.489 11.8962C4.59634 11.7865 4.73309 11.7117 4.88197 11.6814C5.03084 11.6512 5.18516 11.6667 5.3254 11.7261C5.46564 11.7855 5.5855 11.8861 5.66983 12.0151C5.75417 12.1441 5.79918 12.2958 5.79918 12.451C5.79918 12.6591 5.71832 12.8587 5.57439 13.0059C5.43046 13.153 5.23524 13.2357 5.0317 13.2357Z"/>
</svg>